<svg width="358" height="26" viewBox="0 0 358 26" fill="none" xmlns="http://www.w3.org/2000/svg">
<path d="M7.524 19.216C6.24 19.216 5.076 18.94 4.032 18.388C3 17.824 2.184 17.05 1.584 16.066C0.996 15.07 0.702 13.948 0.702 12.7C0.702 11.452 0.996 10.336 1.584 9.352C2.184 8.356 3 7.582 4.032 7.03C5.076 6.466 6.246 6.184 7.542 6.184C8.634 6.184 9.618 6.376 10.494 6.76C11.382 7.144 12.126 7.696 12.726 8.416L10.854 10.144C10.002 9.16 8.946 8.668 7.686 8.668C6.906 8.668 6.21 8.842 5.598 9.19C4.986 9.526 4.506 10 4.158 10.612C3.822 11.224 3.654 11.92 3.654 12.7C3.654 13.48 3.822 14.176 4.158 14.788C4.506 15.4 4.986 15.88 5.598 16.228C6.21 16.564 6.906 16.732 7.686 16.732C8.946 16.732 10.002 16.234 10.854 15.238L12.726 16.966C12.126 17.698 11.382 18.256 10.494 18.64C9.606 19.024 8.616 19.216 7.524 19.216ZM20.7349 19.216C19.4269 19.216 18.2449 18.934 17.1889 18.37C16.1449 17.806 15.3229 17.032 14.7229 16.048C14.1349 15.052 13.8409 13.936 13.8409 12.7C13.8409 11.464 14.1349 10.354 14.7229 9.37C15.3229 8.374 16.1449 7.594 17.1889 7.03C18.2449 6.466 19.4269 6.184 20.7349 6.184C22.0429 6.184 23.2189 6.466 24.2629 7.03C25.3069 7.594 26.1289 8.374 26.7289 9.37C27.3289 10.354 27.6289 11.464 27.6289 12.7C27.6289 13.936 27.3289 15.052 26.7289 16.048C26.1289 17.032 25.3069 17.806 24.2629 18.37C23.2189 18.934 22.0429 19.216 20.7349 19.216ZM20.7349 16.732C21.4789 16.732 22.1509 16.564 22.7509 16.228C23.3509 15.88 23.8189 15.4 24.1549 14.788C24.5029 14.176 24.6769 13.48 24.6769 12.7C24.6769 11.92 24.5029 11.224 24.1549 10.612C23.8189 10 23.3509 9.526 22.7509 9.19C22.1509 8.842 21.4789 8.668 20.7349 8.668C19.9909 8.668 19.3189 8.842 18.7189 9.19C18.1189 9.526 17.6449 10 17.2969 10.612C16.9609 11.224 16.7929 11.92 16.7929 12.7C16.7929 13.48 16.9609 14.176 17.2969 14.788C17.6449 15.4 18.1189 15.88 18.7189 16.228C19.3189 16.564 19.9909 16.732 20.7349 16.732ZM30.2352 6.4H40.4052V8.722H33.1332V11.314H36.6252C38.1492 11.314 39.3072 11.632 40.0992 12.268C40.9032 12.904 41.3052 13.822 41.3052 15.022C41.3052 16.282 40.8612 17.26 39.9732 17.956C39.0852 18.652 37.8312 19 36.2112 19H30.2352V6.4ZM36.0492 16.84C36.7932 16.84 37.3632 16.696 37.7592 16.408C38.1552 16.108 38.3532 15.676 38.3532 15.112C38.3532 14.008 37.5852 13.456 36.0492 13.456H33.1332V16.84H36.0492ZM49.8423 19.216C48.5583 19.216 47.3943 18.94 46.3503 18.388C45.3183 17.824 44.5023 17.05 43.9023 16.066C43.3143 15.07 43.0203 13.948 43.0203 12.7C43.0203 11.452 43.3143 10.336 43.9023 9.352C44.5023 8.356 45.3183 7.582 46.3503 7.03C47.3943 6.466 48.5643 6.184 49.8603 6.184C50.9523 6.184 51.9363 6.376 52.8123 6.76C53.7003 7.144 54.4443 7.696 55.0443 8.416L53.1723 10.144C52.3203 9.16 51.2643 8.668 50.0043 8.668C49.2243 8.668 48.5283 8.842 47.9163 9.19C47.3043 9.526 46.8243 10 46.4763 10.612C46.1403 11.224 45.9723 11.92 45.9723 12.7C45.9723 13.48 46.1403 14.176 46.4763 14.788C46.8243 15.4 47.3043 15.88 47.9163 16.228C48.5283 16.564 49.2243 16.732 50.0043 16.732C51.2643 16.732 52.3203 16.234 53.1723 15.238L55.0443 16.966C54.4443 17.698 53.7003 18.256 52.8123 18.64C51.9243 19.024 50.9343 19.216 49.8423 19.216ZM66.8118 8.776H62.7798V19H59.8998V8.776H55.8858V6.4H66.8118V8.776ZM77.7327 12.43C78.5007 12.658 79.0887 13.03 79.4967 13.546C79.9047 14.062 80.1087 14.698 80.1087 15.454C80.1087 16.57 79.6827 17.44 78.8307 18.064C77.9907 18.688 76.7847 19 75.2127 19H69.0027V6.4H74.8707C76.3347 6.4 77.4747 6.682 78.2907 7.246C79.1067 7.81 79.5147 8.614 79.5147 9.658C79.5147 10.282 79.3587 10.834 79.0467 11.314C78.7347 11.782 78.2967 12.154 77.7327 12.43ZM71.9007 11.62H74.6187C75.2547 11.62 75.7347 11.494 76.0587 11.242C76.3827 10.978 76.5447 10.594 76.5447 10.09C76.5447 9.598 76.3767 9.22 76.0407 8.956C75.7167 8.692 75.2427 8.56 74.6187 8.56H71.9007V11.62ZM75.1047 16.84C76.4727 16.84 77.1567 16.3 77.1567 15.22C77.1567 14.176 76.4727 13.654 75.1047 13.654H71.9007V16.84H75.1047ZM92.5308 16.66V19H82.7748V6.4H92.2968V8.74H85.6728V11.476H91.5228V13.744H85.6728V16.66H92.5308ZM106.802 6.4V19H103.886V13.834H98.1622V19H95.2462V6.4H98.1622V11.368H103.886V6.4H106.802ZM121.875 6.4V19H118.959V13.834H113.235V19H110.319V6.4H113.235V11.368H118.959V6.4H121.875ZM133.924 16.3H128.074L126.958 19H123.97L129.586 6.4H132.466L138.1 19H135.04L133.924 16.3ZM133.006 14.086L131.008 9.262L129.01 14.086H133.006ZM149.542 6.4V19H146.662V15.652H143.998L141.766 19H138.688L141.316 15.202C140.464 14.854 139.81 14.332 139.354 13.636C138.898 12.928 138.67 12.082 138.67 11.098C138.67 10.126 138.892 9.292 139.336 8.596C139.78 7.888 140.41 7.348 141.226 6.976C142.042 6.592 143.002 6.4 144.106 6.4H149.542ZM144.178 8.776C143.35 8.776 142.714 8.968 142.27 9.352C141.838 9.736 141.622 10.306 141.622 11.062C141.622 11.794 141.832 12.358 142.252 12.754C142.672 13.15 143.29 13.348 144.106 13.348H146.662V8.776H144.178ZM163.971 6.4C165.087 6.4 166.053 6.586 166.869 6.958C167.697 7.33 168.333 7.858 168.777 8.542C169.221 9.226 169.443 10.036 169.443 10.972C169.443 11.896 169.221 12.706 168.777 13.402C168.333 14.086 167.697 14.614 166.869 14.986C166.053 15.346 165.087 15.526 163.971 15.526H161.433V19H158.517V6.4H163.971ZM163.809 13.15C164.685 13.15 165.351 12.964 165.807 12.592C166.263 12.208 166.491 11.668 166.491 10.972C166.491 10.264 166.263 9.724 165.807 9.352C165.351 8.968 164.685 8.776 163.809 8.776H161.433V13.15H163.809ZM179.626 16.3H173.776L172.66 19H169.672L175.288 6.4H178.168L183.802 19H180.742L179.626 16.3ZM178.708 14.086L176.71 9.262L174.712 14.086H178.708ZM192.997 12.43C193.729 12.682 194.299 13.078 194.707 13.618C195.127 14.146 195.337 14.764 195.337 15.472C195.337 16.24 195.085 16.906 194.581 17.47C194.077 18.034 193.393 18.466 192.529 18.766C191.677 19.066 190.741 19.216 189.721 19.216C188.857 19.216 187.993 19.108 187.129 18.892C186.277 18.676 185.467 18.346 184.699 17.902L185.599 15.814C186.151 16.15 186.757 16.408 187.417 16.588C188.089 16.756 188.743 16.84 189.379 16.84C190.243 16.84 190.957 16.684 191.521 16.372C192.097 16.06 192.385 15.622 192.385 15.058C192.385 14.59 192.187 14.236 191.791 13.996C191.407 13.756 190.879 13.636 190.207 13.636H187.129V11.44H189.991C190.579 11.44 191.035 11.32 191.359 11.08C191.695 10.84 191.863 10.51 191.863 10.09C191.863 9.598 191.623 9.214 191.143 8.938C190.675 8.662 190.069 8.524 189.325 8.524C188.773 8.524 188.203 8.602 187.615 8.758C187.027 8.902 186.469 9.124 185.941 9.424L185.059 7.156C186.391 6.472 187.831 6.13 189.379 6.13C190.363 6.13 191.269 6.274 192.097 6.562C192.925 6.85 193.585 7.27 194.077 7.822C194.569 8.374 194.815 9.016 194.815 9.748C194.815 10.348 194.653 10.882 194.329 11.35C194.005 11.818 193.561 12.178 192.997 12.43ZM203.459 6.4C204.575 6.4 205.541 6.586 206.357 6.958C207.185 7.33 207.821 7.858 208.265 8.542C208.709 9.226 208.931 10.036 208.931 10.972C208.931 11.896 208.709 12.706 208.265 13.402C207.821 14.086 207.185 14.614 206.357 14.986C205.541 15.346 204.575 15.526 203.459 15.526H200.921V19H198.005V6.4H203.459ZM203.297 13.15C204.173 13.15 204.839 12.964 205.295 12.592C205.751 12.208 205.979 11.668 205.979 10.972C205.979 10.264 205.751 9.724 205.295 9.352C204.839 8.968 204.173 8.776 203.297 8.776H200.921V13.15H203.297ZM219.114 16.3H213.264L212.148 19H209.16L214.776 6.4H217.656L223.29 19H220.23L219.114 16.3ZM218.196 14.086L216.198 9.262L214.2 14.086H218.196ZM225.321 6.4H235.491V8.722H228.219V11.314H231.711C233.235 11.314 234.393 11.632 235.185 12.268C235.989 12.904 236.391 13.822 236.391 15.022C236.391 16.282 235.947 17.26 235.059 17.956C234.171 18.652 232.917 19 231.297 19H225.321V6.4ZM231.135 16.84C231.879 16.84 232.449 16.696 232.845 16.408C233.241 16.108 233.439 15.676 233.439 15.112C233.439 14.008 232.671 13.456 231.135 13.456H228.219V16.84H231.135ZM244.982 19.216C243.674 19.216 242.492 18.934 241.436 18.37C240.392 17.806 239.57 17.032 238.97 16.048C238.382 15.052 238.088 13.936 238.088 12.7C238.088 11.464 238.382 10.354 238.97 9.37C239.57 8.374 240.392 7.594 241.436 7.03C242.492 6.466 243.674 6.184 244.982 6.184C246.29 6.184 247.466 6.466 248.51 7.03C249.554 7.594 250.376 8.374 250.976 9.37C251.576 10.354 251.876 11.464 251.876 12.7C251.876 13.936 251.576 15.052 250.976 16.048C250.376 17.032 249.554 17.806 248.51 18.37C247.466 18.934 246.29 19.216 244.982 19.216ZM244.982 16.732C245.726 16.732 246.398 16.564 246.998 16.228C247.598 15.88 248.066 15.4 248.402 14.788C248.75 14.176 248.924 13.48 248.924 12.7C248.924 11.92 248.75 11.224 248.402 10.612C248.066 10 247.598 9.526 246.998 9.19C246.398 8.842 245.726 8.668 244.982 8.668C244.238 8.668 243.566 8.842 242.966 9.19C242.366 9.526 241.892 10 241.544 10.612C241.208 11.224 241.04 11.92 241.04 12.7C241.04 13.48 241.208 14.176 241.544 14.788C241.892 15.4 242.366 15.88 242.966 16.228C243.566 16.564 244.238 16.732 244.982 16.732ZM263.936 8.776H259.904V19H257.024V8.776H253.01V6.4H263.936V8.776ZM271.005 13.924H268.989V19H266.091V6.4H268.989V11.494H271.077L274.389 6.4H277.467L273.345 12.484L277.593 19H274.281L271.005 13.924ZM287.605 16.3H281.755L280.639 19H277.651L283.267 6.4H286.147L291.781 19H288.721L287.605 16.3ZM286.687 14.086L284.689 9.262L282.691 14.086H286.687Z" fill="white"/>
<path d="M331.863 4.62821C331.854 4.07601 331.398 3.63625 330.846 3.64597L321.847 3.80436C321.295 3.81408 320.855 4.26961 320.865 4.82181C320.875 5.37401 321.33 5.81377 321.883 5.80405L329.881 5.66326L330.022 13.662C330.032 14.2142 330.487 14.654 331.04 14.6443C331.592 14.6345 332.032 14.179 332.022 13.6268L331.863 4.62821ZM316.849 20.602L331.583 5.34037L330.144 3.95126L315.411 19.2129L316.849 20.602Z" fill="white"/>
</svg>
